<?xml version="1.0" encoding="utf-8"?>
<!-- Generator: Adobe Illustrator 23.0.3, SVG Export Plug-In . SVG Version: 6.00 Build 0)  -->
<svg version="1.1" id="Слой_1" xmlns="http://www.w3.org/2000/svg" xmlns:xlink="http://www.w3.org/1999/xlink" x="0px" y="0px"
	 viewBox="0 0 232.44 110.55" style="enable-background:new 0 0 232.44 110.55;" xml:space="preserve">
<style type="text/css">
	.st0{fill:#0075FF;}
	.st1{clip-path:url(#SVGID_2_);fill:#FFFFFF;}
	.st2{clip-path:url(#SVGID_4_);fill:#FFFFFF;}
</style>
<rect x="1.97" y="40.73" class="st0" width="228.5" height="20.76"/>
<g>
	<path class="st0" d="M29.51,12.67h-13.8v5.95h12.54v10.66H15.71v17.34H1.74V1.39h27.77V12.67z"/>
	<path class="st0" d="M46.43,46.62H32.46V1.39h13.97V46.62z"/>
	<path class="st0" d="M81.43,12.9h-9.67v33.72H57.79V12.9h-9.73V1.39h33.37V12.9z"/>
	<path class="st0" d="M126.8,46.62h-14.56L96.04,22.8v23.82h-13.1V1.33H98.5l15.23,23.82V1.33h13.07V46.62z"/>
	<path class="st0" d="M160.28,46.62h-28.56V1.39h28.56v11.28h-14.59v5.89h13.51v10.66h-13.51v6.12h14.59V46.62z"/>
	<path class="st0" d="M195.63,31.92c0,5.08-1.65,9.04-4.95,11.89c-3.22,2.75-7.61,4.13-13.15,4.13c-6.05,0-11.72-1.68-16.99-5.04
		l4.86-10.81c3.89,3.05,7.46,4.57,10.72,4.57c1.64,0,2.92-0.31,3.84-0.94c0.8-0.57,1.2-1.27,1.2-2.11c0-1.19-0.63-2.21-1.89-3.06
		s-3.65-1.87-7.16-3.06c-3.2-1.07-5.57-2.5-7.09-4.28c-1.76-2.05-2.64-4.77-2.64-8.14c0-4.63,1.6-8.31,4.8-11.04
		c3.11-2.64,7.17-3.96,12.19-3.96s9.86,1.32,14.53,3.96l-4.34,10.75c-2.87-2.32-5.79-3.49-8.76-3.49c-1.19,0-2.17,0.24-2.93,0.72
		c-0.76,0.48-1.14,1.1-1.14,1.86c0,0.86,0.47,1.59,1.41,2.2c1.04,0.66,3.38,1.71,7.05,3.15s6.32,3.16,7.97,5.19
		S195.63,28.93,195.63,31.92z"/>
	<path class="st0" d="M230.71,31.92c0,5.08-1.65,9.04-4.95,11.89c-3.22,2.75-7.61,4.13-13.15,4.13c-6.05,0-11.72-1.68-16.99-5.04
		l4.86-10.81c3.89,3.05,7.46,4.57,10.72,4.57c1.64,0,2.92-0.31,3.84-0.94c0.8-0.57,1.2-1.27,1.2-2.11c0-1.19-0.63-2.21-1.89-3.06
		s-3.65-1.87-7.16-3.06c-3.2-1.07-5.57-2.5-7.09-4.28c-1.76-2.05-2.64-4.77-2.64-8.14c0-4.63,1.6-8.31,4.8-11.04
		c3.11-2.64,7.17-3.96,12.19-3.96s9.86,1.32,14.53,3.96l-4.34,10.75c-2.87-2.32-5.79-3.49-8.76-3.49c-1.19,0-2.17,0.24-2.93,0.72
		c-0.76,0.48-1.14,1.1-1.14,1.86c0,0.86,0.47,1.59,1.41,2.2c1.04,0.66,3.38,1.71,7.05,3.15s6.32,3.16,7.97,5.19
		S230.71,28.93,230.71,31.92z"/>
</g>
<g>
	<g>
		<defs>
			<rect id="SVGID_1_" x="0" y="8.45" width="120.14" height="51.21"/>
		</defs>
		<clipPath id="SVGID_2_">
			<use xlink:href="#SVGID_1_"  style="overflow:visible;"/>
		</clipPath>
		<path class="st1" d="M120.14,52.05h-9.41l-2.19-4.37c-0.47-0.93-1.8-0.93-2.26,0l-3.88,7.75l-4.61-10.24
			c-0.46-1.01-1.9-0.99-2.33,0.03l-2.84,6.82h-0.65h-7.46h-1.96l-2.19-4.37c-0.47-0.93-1.8-0.93-2.26,0l-3.88,7.75l-4.61-16.66
			c-0.46-1.01-1.9-0.99-2.33,0.03l-2.84,13.25H63.8h-7.46h-1.96l-2.18-4.37c-0.47-0.93-1.8-0.93-2.26,0l-3.88,7.75l-4.61-24.81
			c-0.46-1.01-1.9-0.99-2.33,0.03l-2.84,21.39h-0.65h-7.46h-1.96l-2.19-4.37c-0.47-0.93-1.8-0.93-2.26,0l-3.88,7.75l-4.61-16.49
			c-0.46-1.01-1.9-0.99-2.33,0.03L8.11,52.05H0l2.34,2.53h7.45l2.38-11.34l4.51,15.67c0.44,0.97,1.81,1.01,2.29,0.05l3.93-7.87
			l1.75,3.5h5.87h2.77h4.68l2.37-17.62l4.51,21.94c0.44,0.97,1.81,1.01,2.29,0.05l3.93-7.87l1.75,3.5h5.87h2.77h4.68l2.38-10.88
			l4.5,15.2c0.44,0.97,1.81,1.01,2.29,0.05l3.94-7.87l1.75,3.5h5.87h2.77h4.68l2.37-5.68l4.51,10c0.44,0.97,1.81,1.01,2.29,0.05
			l3.93-7.87l1.75,3.5h8.64L120.14,52.05z"/>
	</g>
	<g>
		<defs>
			<rect id="SVGID_3_" x="112.3" y="8.45" width="120.14" height="51.21"/>
		</defs>
		<clipPath id="SVGID_4_">
			<use xlink:href="#SVGID_3_"  style="overflow:visible;"/>
		</clipPath>
		<path class="st2" d="M232.44,52.05h-9.41l-2.19-4.37c-0.47-0.93-1.8-0.93-2.26,0l-3.88,7.75l-4.61-12.24
			c-0.46-1.01-1.9-0.99-2.33,0.03l-2.84,8.82h-0.65h-7.46h-1.96l-2.19-4.37c-0.47-0.93-1.8-0.93-2.26,0l-3.88,7.75l-4.61-16.34
			c-0.46-1.01-1.9-0.99-2.33,0.03l-2.84,12.93h-0.65h-7.46h-1.96l-2.18-4.37c-0.47-0.93-1.8-0.93-2.26,0l-3.88,7.75l-4.61-15.24
			c-0.46-1.01-1.9-0.99-2.33,0.03l-2.84,11.82h-0.65h-7.46h-1.96l-2.19-4.37c-0.47-0.93-1.8-0.93-2.26,0l-3.88,7.75l-4.61-13.25
			c-0.46-1.01-1.9-0.99-2.33,0.03l-2.84,9.84h-8.11l2.34,2.53h7.45l2.38-8.68l4.51,13c0.44,0.97,1.81,1.01,2.29,0.05l3.93-7.87
			l1.75,3.5h5.87h2.77h4.68l2.37-9.68l4.51,14c0.44,0.97,1.81,1.01,2.29,0.05l3.93-7.87l1.75,3.5h5.87h2.77h4.68l2.38-10.68l4.5,15
			c0.44,0.97,1.81,1.01,2.29,0.05l3.94-7.87l1.75,3.5h5.87h2.77h4.68l2.37-7.68l4.51,12c0.44,0.97,1.81,1.01,2.29,0.05l3.93-7.87
			l1.75,3.5h8.64L232.44,52.05z"/>
	</g>
</g>
<g>
	<g>
		<path class="st0" d="M29.33,67.36H17.26v42.54h-2.87V67.36H2.32v-2.7h27.01V67.36z"/>
		<path class="st0" d="M57.3,109.9h-3.38L39.16,88.48h-1.44v21.42h-2.87V64.66h7.03c8.95,0,13.42,4.08,13.42,12.24
			c0,3.36-1.02,6.06-3.04,8.11c-2.26,2.3-5.51,3.46-9.72,3.46L57.3,109.9z M52.49,76.64c0-6.19-3.48-9.29-10.43-9.29h-4.34v18.43
			h4.86c2.97,0,5.36-0.83,7.18-2.5S52.49,79.4,52.49,76.64z"/>
		<path class="st0" d="M97.17,109.9l-2.94,0l-6.02-14.83H68.3l-5.99,14.83l-2.94,0l18.9-46.79L97.17,109.9z M87.16,92.38
			l-8.88-21.91l-8.88,21.91H87.16z"/>
		<path class="st0" d="M134.82,73.89c-4.08-4.77-9.21-7.15-15.38-7.15c-5.43,0-10.19,2.05-14.27,6.15c-4.08,4.1-6.12,8.9-6.12,14.38
			c0,5.43,2.06,10.21,6.18,14.33c4.12,4.12,8.9,6.18,14.33,6.18c5.82,0,10.89-2.27,15.21-6.83v3.9c-4.49,3.75-9.22,5.63-14.18,5.63
			c-6.72,0-12.47-2.27-17.24-6.81s-7.16-10-7.16-16.39c0-6.27,2.34-11.71,7.02-16.32c4.68-4.61,10.2-6.91,16.57-6.91
			c5.88,0,10.9,1.94,15.06,5.83V73.89z"/>
		<path class="st0" d="M173.01,109.9h-3.82L147.55,88.3l-1.2,1.26v20.33h-2.87V64.66h2.87v21.12l21.48-21.12h3.84l-22.13,21.77
			L173.01,109.9z"/>
		<path class="st0" d="M199.56,109.9h-21.65V64.66h21.65v2.7h-18.78v16.44h18.25v2.7h-18.25v20.71h18.78V109.9z"/>
		<path class="st0" d="M231.07,109.9h-3.38l-14.77-21.42h-1.44v21.42h-2.87V64.66h7.03c8.95,0,13.42,4.08,13.42,12.24
			c0,3.36-1.02,6.06-3.04,8.11c-2.26,2.3-5.5,3.46-9.72,3.46L231.07,109.9z M226.25,76.64c0-6.19-3.48-9.29-10.43-9.29h-4.34v18.43
			h4.86c2.97,0,5.36-0.83,7.18-2.5S226.25,79.4,226.25,76.64z"/>
	</g>
</g>
</svg>
